<svg width="20" height="21" viewBox="0 0 20 21" fill="none" xmlns="http://www.w3.org/2000/svg">
<g clip-path="url(#clip0_59_4126)">
<path d="M17.917 3.83332H15.6948V5.49998C15.6948 5.66049 15.6632 5.81942 15.6018 5.96771C15.5403 6.11599 15.4503 6.25073 15.3368 6.36422C15.2233 6.47772 15.0886 6.56775 14.9403 6.62917C14.792 6.69059 14.6331 6.7222 14.4726 6.7222C14.3121 6.7222 14.1531 6.69059 14.0049 6.62917C13.8566 6.56775 13.7218 6.47772 13.6083 6.36422C13.4948 6.25073 13.4048 6.11599 13.3434 5.96771C13.282 5.81942 13.2504 5.66049 13.2504 5.49998V3.83332H6.77814V5.49998C6.77814 5.82414 6.64937 6.13501 6.42016 6.36422C6.19095 6.59344 5.88007 6.7222 5.55592 6.7222C5.23176 6.7222 4.92089 6.59344 4.69167 6.36422C4.46246 6.13501 4.33369 5.82414 4.33369 5.49998V3.83332H2.11147C1.97926 3.83181 1.84809 3.85683 1.72572 3.90691C1.60335 3.95698 1.49227 4.03108 1.39903 4.12483C1.3058 4.21858 1.23232 4.33008 1.18292 4.45272C1.13353 4.57537 1.10923 4.70667 1.11147 4.83887V17.2722C1.10926 17.4021 1.13266 17.5311 1.18033 17.6519C1.228 17.7727 1.299 17.883 1.38928 17.9764C1.47957 18.0698 1.58736 18.1444 1.70651 18.1961C1.82566 18.2479 1.95382 18.2756 2.08369 18.2778H17.917C18.0469 18.2756 18.1751 18.2479 18.2942 18.1961C18.4134 18.1444 18.5212 18.0698 18.6114 17.9764C18.7017 17.883 18.7727 17.7727 18.8204 17.6519C18.8681 17.5311 18.8915 17.4021 18.8892 17.2722V4.83887C18.8915 4.709 18.8681 4.57997 18.8204 4.45915C18.7727 4.33833 18.7017 4.22808 18.6114 4.1347C18.5212 4.04132 18.4134 3.96664 18.2942 3.91493C18.1751 3.86322 18.0469 3.83549 17.917 3.83332ZM5.55592 14.9444H4.4448V13.8333H5.55592V14.9444ZM5.55592 12.1666H4.4448V11.0555H5.55592V12.1666ZM5.55592 9.38887H4.4448V8.27776H5.55592V9.38887ZM8.88925 14.9444H7.77814V13.8333H8.88925V14.9444ZM8.88925 12.1666H7.77814V11.0555H8.88925V12.1666ZM8.88925 9.38887H7.77814V8.27776H8.88925V9.38887ZM12.2226 14.9444H11.1115V13.8333H12.2226V14.9444ZM12.2226 12.1666H11.1115V11.0555H12.2226V12.1666ZM12.2226 9.38887H11.1115V8.27776H12.2226V9.38887ZM15.5559 14.9444H14.4448V13.8333H15.5559V14.9444ZM15.5559 12.1666H14.4448V11.0555H15.5559V12.1666ZM15.5559 9.38887H14.4448V8.27776H15.5559V9.38887Z" fill="url(#paint0_linear_59_4126)"/>
<path d="M5.55556 6.05553C5.7029 6.05553 5.84421 5.997 5.94839 5.89281C6.05258 5.78862 6.11111 5.64732 6.11111 5.49997V2.16664C6.11111 2.0193 6.05258 1.87799 5.94839 1.7738C5.84421 1.66962 5.7029 1.61108 5.55556 1.61108C5.40821 1.61108 5.26691 1.66962 5.16272 1.7738C5.05853 1.87799 5 2.0193 5 2.16664V5.49997C5 5.64732 5.05853 5.78862 5.16272 5.89281C5.26691 5.997 5.40821 6.05553 5.55556 6.05553Z" fill="url(#paint1_linear_59_4126)"/>
<path d="M14.4442 6.05553C14.5916 6.05553 14.7329 5.997 14.8371 5.89281C14.9413 5.78862 14.9998 5.64732 14.9998 5.49997V2.16664C14.9998 2.0193 14.9413 1.87799 14.8371 1.7738C14.7329 1.66962 14.5916 1.61108 14.4442 1.61108C14.2969 1.61108 14.1556 1.66962 14.0514 1.7738C13.9472 1.87799 13.8887 2.0193 13.8887 2.16664V5.49997C13.8887 5.64732 13.9472 5.78862 14.0514 5.89281C14.1556 5.997 14.2969 6.05553 14.4442 6.05553Z" fill="url(#paint2_linear_59_4126)"/>
</g>
<defs>
<linearGradient id="paint0_linear_59_4126" x1="10.0004" y1="3.83325" x2="5.00049" y2="14.9444" gradientUnits="userSpaceOnUse">
<stop stop-color="#102A61"/>
<stop offset="1" stop-color="#3B70E1"/>
</linearGradient>
<linearGradient id="paint1_linear_59_4126" x1="5.55556" y1="1.61108" x2="5.55556" y2="6.05553" gradientUnits="userSpaceOnUse">
<stop stop-color="#102A61"/>
<stop offset="1" stop-color="#2156C7"/>
</linearGradient>
<linearGradient id="paint2_linear_59_4126" x1="14.4442" y1="1.61108" x2="14.4442" y2="6.05553" gradientUnits="userSpaceOnUse">
<stop stop-color="#102A61"/>
<stop offset="1" stop-color="#2156C7"/>
</linearGradient>
<clipPath id="clip0_59_4126">
<rect width="20" height="20" fill="white" transform="translate(0 0.5)"/>
</clipPath>
</defs>
</svg>
