<svg width="23" height="23" viewBox="0 0 23 23" fill="none" xmlns="http://www.w3.org/2000/svg">
<path d="M16.0726 13.2364C16.5947 13.2364 17.018 12.8131 17.018 12.2909C17.018 11.7687 16.5947 11.3455 16.0726 11.3455C15.5504 11.3455 15.1271 11.7687 15.1271 12.2909C15.1271 12.8131 15.5504 13.2364 16.0726 13.2364Z" fill="white"/>
<path d="M16.0726 17.0182C16.5947 17.0182 17.018 16.5949 17.018 16.0727C17.018 15.5506 16.5947 15.1273 16.0726 15.1273C15.5504 15.1273 15.1271 15.5506 15.1271 16.0727C15.1271 16.5949 15.5504 17.0182 16.0726 17.0182Z" fill="white"/>
<path d="M12.2907 12.2909C12.2907 12.8131 11.8674 13.2364 11.3453 13.2364C10.8231 13.2364 10.3998 12.8131 10.3998 12.2909C10.3998 11.7687 10.8231 11.3455 11.3453 11.3455C11.8674 11.3455 12.2907 11.7687 12.2907 12.2909Z" fill="white"/>
<path d="M12.2907 16.0727C12.2907 16.5949 11.8674 17.0182 11.3453 17.0182C10.8231 17.0182 10.3998 16.5949 10.3998 16.0727C10.3998 15.5506 10.8231 15.1273 11.3453 15.1273C11.8674 15.1273 12.2907 15.5506 12.2907 16.0727Z" fill="white"/>
<path d="M6.61801 13.2364C7.14016 13.2364 7.56346 12.8131 7.56346 12.2909C7.56346 11.7687 7.14016 11.3455 6.61801 11.3455C6.09584 11.3455 5.67255 11.7687 5.67255 12.2909C5.67255 12.8131 6.09584 13.2364 6.61801 13.2364Z" fill="white"/>
<path d="M6.61801 17.0182C7.14016 17.0182 7.56346 16.5949 7.56346 16.0727C7.56346 15.5506 7.14016 15.1273 6.61801 15.1273C6.09584 15.1273 5.67255 15.5506 5.67255 16.0727C5.67255 16.5949 6.09584 17.0182 6.61801 17.0182Z" fill="white"/>
<path fill-rule="evenodd" clip-rule="evenodd" d="M6.61801 1.65454C7.00962 1.65454 7.3271 1.97201 7.3271 2.36363V3.08475C7.95298 3.07271 8.64253 3.07272 9.40091 3.07272H13.2895C14.0479 3.07272 14.7376 3.07271 15.3635 3.08475V2.36363C15.3635 1.97201 15.6809 1.65454 16.0726 1.65454C16.4642 1.65454 16.7816 1.97201 16.7816 2.36363V3.14561C17.0274 3.16434 17.2601 3.1879 17.4804 3.2175C18.5888 3.36653 19.486 3.68054 20.1936 4.38808C20.9011 5.09562 21.2151 5.99281 21.3641 7.10128C21.5089 8.17835 21.5089 9.55457 21.5089 11.2921V13.2897C21.5089 15.0272 21.5089 16.4035 21.3641 17.4805C21.2151 18.589 20.9011 19.4862 20.1936 20.1937C19.486 20.9013 18.5888 21.2153 17.4804 21.3643C16.4033 21.5091 15.0271 21.5091 13.2896 21.5091H9.40103C7.66353 21.5091 6.28727 21.5091 5.2102 21.3643C4.10173 21.2153 3.20454 20.9013 2.497 20.1937C1.78945 19.4862 1.47545 18.589 1.32642 17.4805C1.18161 16.4035 1.18163 15.0272 1.18164 13.2897V11.2921C1.18163 9.55459 1.18161 8.17836 1.32642 7.10128C1.47545 5.99281 1.78945 5.09562 2.497 4.38808C3.20454 3.68054 4.10173 3.36653 5.2102 3.2175C5.43042 3.1879 5.66315 3.16434 5.90891 3.14561V2.36363C5.90891 1.97201 6.22639 1.65454 6.61801 1.65454ZM5.39917 4.62304C4.44796 4.75093 3.89993 4.99076 3.4998 5.39089C3.09968 5.79101 2.85985 6.33904 2.73196 7.29025C2.7103 7.45134 2.69219 7.62094 2.67705 7.8H20.0135C19.9984 7.62094 19.9803 7.45135 19.9586 7.29025C19.8307 6.33904 19.5909 5.79101 19.1907 5.39089C18.7906 4.99076 18.2426 4.75093 17.2914 4.62304C16.3198 4.49241 15.039 4.4909 13.2362 4.4909H9.45437C7.65156 4.4909 6.37078 4.49241 5.39917 4.62304ZM2.59982 11.3455C2.59982 10.538 2.60013 9.8353 2.61219 9.21818H20.0784C20.0904 9.8353 20.0907 10.538 20.0907 11.3455V13.2364C20.0907 15.0392 20.0892 16.3199 19.9586 17.2916C19.8307 18.2428 19.5909 18.7908 19.1907 19.1909C18.7906 19.591 18.2426 19.8309 17.2914 19.9588C16.3198 20.0894 15.039 20.0909 13.2362 20.0909H9.45437C7.65156 20.0909 6.37078 20.0894 5.39917 19.9588C4.44796 19.8309 3.89993 19.591 3.4998 19.1909C3.09968 18.7908 2.85985 18.2428 2.73196 17.2916C2.60133 16.3199 2.59982 15.0392 2.59982 13.2364V11.3455Z" fill="white"/>
</svg>
