<svg width="24" height="16" viewBox="0 0 24 16" fill="none" xmlns="http://www.w3.org/2000/svg">
<g clip-path="url(#clip0_745_1410)">
<path d="M23.9937 0.00146484H0V15.974H23.9937V0.00146484Z" fill="white"/>
<path d="M23.9955 6.39277H13.4307V0.00244141H10.5469V6.39277H0.0100403V9.58617H10.5469V15.9739H13.4307V9.58617H23.9955V6.39277Z" fill="#CE1124"/>
<path d="M0.000244141 1.86133V5.339H5.23362L0.000244141 1.86133Z" fill="#00247D"/>
<path d="M2.88747 0.000732422L2.81079 0.00513623L9.59663 4.53833V0.000732422H2.88747Z" fill="#00247D"/>
<path d="M8.0538 5.31705L0.000244141 0.00158691V1.25443L6.13472 5.31705H8.0538Z" fill="#CE1124"/>
<path d="M15.9463 10.6569L23.9998 15.9723V14.7195L17.8654 10.6569H15.9463Z" fill="#CE1124"/>
<path d="M0.000244141 14.1393V10.6616H5.23362L0.000244141 14.1393Z" fill="#00247D"/>
<path d="M2.88747 16L2.81079 15.9956L9.59663 11.4624V16H2.88747Z" fill="#00247D"/>
<path d="M8.01262 10.6565L0.00552368 15.9696L1.87816 15.972L9.60431 10.8726V10.6565H8.01262Z" fill="#CE1124"/>
<path d="M24 1.8606V5.33825H18.7667L24 1.8606Z" fill="#00247D"/>
<path d="M21.1128 0L21.1895 0.00438857L14.4037 4.53757V0H21.1128Z" fill="#00247D"/>
<path d="M23.9923 0.00738501L22.1911 0.00720215L14.4105 5.1425V5.32266H16.0566L23.9923 0.00738501Z" fill="#CE1124"/>
<path d="M24 14.1381V10.6604H18.7667L24 14.1381Z" fill="#00247D"/>
<path d="M21.1128 15.9986L21.1895 15.9942L14.4037 11.4611V15.9986H21.1128Z" fill="#00247D"/>
</g>
<defs>
<clipPath id="clip0_745_1410">
<rect width="24" height="16" fill="white"/>
</clipPath>
</defs>
</svg>
