<svg width="18" height="19" viewBox="0 0 18 19" fill="none" xmlns="http://www.w3.org/2000/svg">
<g clip-path="url(#clip0_458_1739)">
<path d="M9 1.5C7.41775 1.5 5.87103 1.96919 4.55544 2.84824C3.23985 3.72729 2.21447 4.97672 1.60897 6.43853C1.00347 7.90034 0.84504 9.50887 1.15372 11.0607C1.4624 12.6126 2.22433 14.038 3.34315 15.1569C4.46197 16.2757 5.88743 17.0376 7.43928 17.3463C8.99113 17.655 10.5997 17.4965 12.0615 16.891C13.5233 16.2855 14.7727 15.2602 15.6518 13.9446C16.5308 12.629 17 11.0823 17 9.5C17 7.37827 16.1571 5.34344 14.6569 3.84315C13.1566 2.34285 11.1217 1.5 9 1.5ZM12.1 12.09C12.0637 12.145 12.0169 12.1922 11.9622 12.229C11.9076 12.2658 11.8462 12.2915 11.7816 12.3045C11.717 12.3175 11.6505 12.3176 11.5859 12.3048C11.5212 12.292 11.4598 12.2666 11.405 12.23L8.455 10.23V5.875C8.455 5.74239 8.50768 5.61521 8.60145 5.52145C8.69522 5.42768 8.8224 5.375 8.955 5.375C9.08761 5.375 9.21479 5.42768 9.30856 5.52145C9.40233 5.61521 9.455 5.74239 9.455 5.875V9.7L11.955 11.395C12.0104 11.4309 12.0581 11.4775 12.0954 11.5319C12.1326 11.5864 12.1588 11.6477 12.1723 11.7123C12.1857 11.7769 12.1863 11.8435 12.1739 11.9084C12.1615 11.9732 12.1364 12.0349 12.1 12.09ZM11.925 4.615C11.2215 4.19096 10.4346 3.92412 9.61822 3.83281C8.80188 3.74149 7.97544 3.82785 7.19561 4.08596C6.41579 4.34408 5.70103 4.76783 5.10037 5.32816C4.49971 5.88848 4.02738 6.57212 3.71578 7.33215C3.40417 8.09219 3.26067 8.91064 3.29512 9.73135C3.32957 10.5521 3.54116 11.3556 3.91536 12.0869C4.28956 12.8181 4.81753 13.4597 5.46303 13.9678C6.10853 14.4758 6.85629 14.8381 7.655 15.03L7.5 15.815C6.58398 15.6018 5.72513 15.1923 4.98275 14.6149C4.24037 14.0374 3.63215 13.3058 3.20007 12.4704C2.76799 11.635 2.52234 10.7158 2.48009 9.77624C2.43784 8.83668 2.59998 7.89913 2.95534 7.02834C3.31069 6.15754 3.85078 5.37423 4.53833 4.73248C5.22588 4.09073 6.04451 3.60584 6.9377 3.31126C7.83089 3.01669 8.77737 2.91946 9.7118 3.02629C10.6462 3.13311 11.5463 3.44144 12.35 3.93L11.925 4.615Z" fill="url(#paint0_linear_458_1739)"/>
</g>
<defs>
<linearGradient id="paint0_linear_458_1739" x1="-0.999999" y1="17.5" x2="17" y2="1.5" gradientUnits="userSpaceOnUse">
<stop stop-color="#102A61"/>
<stop offset="1" stop-color="#4679E5"/>
</linearGradient>
<clipPath id="clip0_458_1739">
<rect width="18" height="18" fill="white" transform="translate(0 0.5)"/>
</clipPath>
</defs>
</svg>
