<svg width="21" height="21" viewBox="0 0 21 21" fill="none" xmlns="http://www.w3.org/2000/svg">
<g clip-path="url(#clip0_458_1729)">
<path d="M18.813 3.50007H16.4796V5.25007C16.4796 5.4186 16.4464 5.58548 16.382 5.74118C16.3175 5.89688 16.2229 6.03835 16.1038 6.15752C15.9846 6.27669 15.8431 6.37122 15.6874 6.43571C15.5317 6.50021 15.3648 6.5334 15.1963 6.5334C15.0278 6.5334 14.8609 6.50021 14.7052 6.43571C14.5495 6.37122 14.408 6.27669 14.2889 6.15752C14.1697 6.03835 14.0752 5.89688 14.0107 5.74118C13.9462 5.58548 13.913 5.4186 13.913 5.25007V3.50007H7.11714V5.25007C7.11714 5.59043 6.98193 5.91685 6.74126 6.15752C6.50059 6.39819 6.17417 6.5334 5.83381 6.5334C5.49345 6.5334 5.16703 6.39819 4.92636 6.15752C4.68568 5.91685 4.55048 5.59043 4.55048 5.25007V3.50007H2.21714C2.07832 3.49849 1.9406 3.52476 1.81211 3.57734C1.68362 3.62991 1.56698 3.70772 1.46908 3.80616C1.37119 3.9046 1.29403 4.02167 1.24217 4.15044C1.1903 4.27922 1.16479 4.41709 1.16714 4.5559V17.6109C1.16482 17.7473 1.18939 17.8827 1.23944 18.0096C1.28949 18.1365 1.36405 18.2522 1.45884 18.3503C1.55364 18.4483 1.66683 18.5267 1.79193 18.581C1.91704 18.6353 2.05161 18.6645 2.18798 18.6667H18.813C18.9493 18.6645 19.0839 18.6353 19.209 18.581C19.3341 18.5267 19.4473 18.4483 19.5421 18.3503C19.6369 18.2522 19.7115 18.1365 19.7615 18.0096C19.8116 17.8827 19.8361 17.7473 19.8338 17.6109V4.5559C19.8361 4.41954 19.8116 4.28406 19.7615 4.15719C19.7115 4.03033 19.6369 3.91457 19.5421 3.81652C19.4473 3.71847 19.3341 3.64006 19.209 3.58576C19.0839 3.53147 18.9493 3.50235 18.813 3.50007ZM5.83381 15.1667H4.66714V14.0001H5.83381V15.1667ZM5.83381 12.2501H4.66714V11.0834H5.83381V12.2501ZM5.83381 9.3334H4.66714V8.16673H5.83381V9.3334ZM9.33381 15.1667H8.16714V14.0001H9.33381V15.1667ZM9.33381 12.2501H8.16714V11.0834H9.33381V12.2501ZM9.33381 9.3334H8.16714V8.16673H9.33381V9.3334ZM12.8338 15.1667H11.6671V14.0001H12.8338V15.1667ZM12.8338 12.2501H11.6671V11.0834H12.8338V12.2501ZM12.8338 9.3334H11.6671V8.16673H12.8338V9.3334ZM16.3338 15.1667H15.1671V14.0001H16.3338V15.1667ZM16.3338 12.2501H15.1671V11.0834H16.3338V12.2501ZM16.3338 9.3334H15.1671V8.16673H16.3338V9.3334Z" fill="url(#paint0_linear_458_1729)"/>
<path d="M5.83333 5.83317C5.98804 5.83317 6.13642 5.77171 6.24581 5.66232C6.35521 5.55292 6.41667 5.40455 6.41667 5.24984V1.74984C6.41667 1.59513 6.35521 1.44675 6.24581 1.33736C6.13642 1.22796 5.98804 1.1665 5.83333 1.1665C5.67862 1.1665 5.53025 1.22796 5.42085 1.33736C5.31146 1.44675 5.25 1.59513 5.25 1.74984V5.24984C5.25 5.40455 5.31146 5.55292 5.42085 5.66232C5.53025 5.77171 5.67862 5.83317 5.83333 5.83317Z" fill="url(#paint1_linear_458_1729)"/>
<path d="M15.1663 5.83317C15.3211 5.83317 15.4694 5.77171 15.5788 5.66232C15.6882 5.55292 15.7497 5.40455 15.7497 5.24984V1.74984C15.7497 1.59513 15.6882 1.44675 15.5788 1.33736C15.4694 1.22796 15.3211 1.1665 15.1663 1.1665C15.0116 1.1665 14.8633 1.22796 14.7539 1.33736C14.6445 1.44675 14.583 1.59513 14.583 1.74984V5.24984C14.583 5.40455 14.6445 5.55292 14.7539 5.66232C14.8633 5.77171 15.0116 5.83317 15.1663 5.83317Z" fill="url(#paint2_linear_458_1729)"/>
</g>
<defs>
<linearGradient id="paint0_linear_458_1729" x1="10.5005" y1="3.5" x2="5.25061" y2="15.1667" gradientUnits="userSpaceOnUse">
<stop stop-color="#102A61"/>
<stop offset="1" stop-color="#3B70E1"/>
</linearGradient>
<linearGradient id="paint1_linear_458_1729" x1="5.83333" y1="1.1665" x2="5.83333" y2="5.83317" gradientUnits="userSpaceOnUse">
<stop stop-color="#102A61"/>
<stop offset="1" stop-color="#2156C7"/>
</linearGradient>
<linearGradient id="paint2_linear_458_1729" x1="15.1663" y1="1.1665" x2="15.1663" y2="5.83317" gradientUnits="userSpaceOnUse">
<stop stop-color="#102A61"/>
<stop offset="1" stop-color="#2156C7"/>
</linearGradient>
<clipPath id="clip0_458_1729">
<rect width="21" height="21" fill="white"/>
</clipPath>
</defs>
</svg>
