<svg width="22" height="23" viewBox="0 0 22 23" fill="none" xmlns="http://www.w3.org/2000/svg">
<g clip-path="url(#clip0_458_1746)">
<path d="M11.0006 1.37988C7.85672 1.37988 5.28027 4.14618 5.28027 7.52247C5.28027 8.83066 5.66828 10.0465 6.32489 11.0458L10.3024 18.4508C10.8594 19.2345 11.2298 19.0856 11.6929 18.4094L16.0802 10.3693C16.1686 10.1966 16.2382 10.0128 16.2988 9.82495C16.5771 9.09432 16.7203 8.31219 16.7203 7.52247C16.7205 4.14618 14.1448 1.37988 11.0006 1.37988ZM11.0006 4.25799C12.6937 4.25799 14.04 5.7045 14.04 7.52247C14.04 9.34044 12.6937 10.7865 11.0006 10.7865C9.30761 10.7865 7.96074 9.34085 7.96074 7.52268C7.96074 5.7045 9.30761 4.2582 11.0004 4.2582" fill="url(#paint0_linear_458_1746)"/>
<path d="M14.9525 11.0601L14.9424 11.0883L14.9512 11.0625L14.9525 11.0601ZM7.6569 15.5716C4.70457 16.0185 2.63965 17.0877 2.63965 18.6616C2.63965 20.7816 6.08982 22.5001 10.9996 22.5001C15.9095 22.5001 19.3596 20.7816 19.3596 18.6616C19.3596 17.0877 17.2949 16.0185 14.3428 15.5716L13.9338 16.3177C16.1588 16.6484 17.6876 17.3434 17.6876 18.1499C17.6876 19.2807 14.6933 20.1971 10.9996 20.1971C7.30599 20.1971 4.31165 19.2807 4.31165 18.1499C4.31144 17.3461 5.83024 16.6518 8.06215 16.3197L7.6569 15.5716Z" fill="url(#paint1_linear_458_1746)"/>
</g>
<defs>
<linearGradient id="paint0_linear_458_1746" x1="3.96027" y1="14.1399" x2="18.9203" y2="4.45988" gradientUnits="userSpaceOnUse">
<stop stop-color="#102A61"/>
<stop offset="1" stop-color="#477BE9"/>
</linearGradient>
<linearGradient id="paint1_linear_458_1746" x1="10.9996" y1="11.0601" x2="10.9996" y2="22.5001" gradientUnits="userSpaceOnUse">
<stop stop-color="#102A61"/>
<stop offset="1" stop-color="#4A7DEB"/>
</linearGradient>
<clipPath id="clip0_458_1746">
<rect width="22" height="22" fill="white" transform="translate(0 0.5)"/>
</clipPath>
</defs>
</svg>
