<svg width="22" height="23" viewBox="0 0 22 23" fill="none" xmlns="http://www.w3.org/2000/svg">
<path opacity="0.5" d="M15.792 12.4165C17.3109 12.4165 18.542 13.5898 18.542 15.0354C18.542 17.6543 15.792 19.7498 15.792 19.7498C15.792 19.7498 13.042 17.9165 13.042 15.0354C13.042 13.5898 14.2731 12.4165 15.792 12.4165ZM15.792 16.0832C16.0351 16.0832 16.2683 15.9866 16.4402 15.8147C16.6121 15.6428 16.7087 15.4096 16.7087 15.1665C16.7087 14.9234 16.6121 14.6902 16.4402 14.5183C16.2683 14.3464 16.0351 14.2498 15.792 14.2498C15.5489 14.2498 15.3157 14.3464 15.1438 14.5183C14.9719 14.6902 14.8753 14.9234 14.8753 15.1665C14.8753 15.4096 14.9719 15.6428 15.1438 15.8147C15.3157 15.9866 15.5489 16.0832 15.792 16.0832Z" fill="url(#paint0_linear_458_1754)"/>
<path d="M9.16666 3.9375C7.97224 3.9375 7.03358 4.878 7.03358 6C7.03358 7.122 7.97133 8.0625 9.16666 8.0625C10.362 8.0625 11.3007 7.122 11.3007 6C11.3007 4.878 10.362 3.9375 9.16666 3.9375ZM5.65858 6C5.65858 4.08417 7.24624 2.5625 9.16849 2.5625C11.0898 2.5625 12.6775 4.08417 12.6775 6C12.6775 7.91583 11.0898 9.4375 9.16849 9.4375C7.24716 9.4375 5.65583 7.91583 5.65583 6M6.84749 11.4688C6.67974 11.3616 6.55416 11.3552 6.49549 11.3708C6.36349 11.4074 6.23241 11.4465 6.10224 11.4881L5.20024 11.7768C4.89123 11.872 4.60864 12.0378 4.3749 12.2612C4.14116 12.4846 3.96269 12.7594 3.85366 13.0638C3.82925 13.145 3.81358 13.2286 3.80691 13.3132L3.44849 16.7039L3.44666 16.7158C3.37791 17.1989 3.63549 17.5683 4.02691 17.66C5.01416 17.8892 6.67699 18.1458 9.16574 18.1458C9.34808 18.1458 9.52295 18.2183 9.65188 18.3472C9.78081 18.4761 9.85324 18.651 9.85324 18.8333C9.85324 19.0157 9.78081 19.1905 9.65188 19.3195C9.52295 19.4484 9.34808 19.5208 9.16574 19.5208C6.58258 19.5208 4.81433 19.2532 3.71616 18.9983C2.53458 18.7243 1.93599 17.6142 2.08358 16.5353L2.43924 13.1683C2.45574 13.0107 2.48508 12.8154 2.55474 12.6147C2.73352 12.1086 3.02773 11.6511 3.41405 11.2784C3.80038 10.9058 4.26819 10.6283 4.78041 10.4678L5.68333 10.1782C5.83183 10.1311 5.98094 10.0868 6.13066 10.0453C6.69074 9.89125 7.22333 10.0755 7.59366 10.3148C7.93283 10.5347 8.48649 10.7997 9.16574 10.7997C9.84408 10.7997 10.3977 10.5338 10.7369 10.3138C11.1063 10.0755 11.6398 9.89125 12.1999 10.0453C12.3496 10.0868 12.4987 10.1311 12.6472 10.1782L13.5502 10.4678C13.6379 10.4939 13.7196 10.5372 13.7903 10.5953C13.8611 10.6533 13.9196 10.7249 13.9623 10.8058C14.0051 10.8868 14.0312 10.9754 14.0393 11.0666C14.0473 11.1578 14.037 11.2497 14.0091 11.3368C13.9811 11.424 13.936 11.5047 13.8765 11.5742C13.8169 11.6437 13.7441 11.7006 13.6622 11.7416C13.5804 11.7826 13.4912 11.8068 13.3998 11.8129C13.3085 11.8189 13.2169 11.8067 13.1303 11.7768L12.2283 11.4881C12.0977 11.4463 11.9663 11.4072 11.8342 11.3708C11.7764 11.3552 11.6508 11.3616 11.484 11.4688C11.0137 11.7732 10.2007 12.1747 9.16483 12.1747C8.12899 12.1747 7.31774 11.7732 6.84749 11.4688Z" fill="black"/>
<path d="M9.16666 3.9375C7.97224 3.9375 7.03358 4.878 7.03358 6C7.03358 7.122 7.97133 8.0625 9.16666 8.0625C10.362 8.0625 11.3007 7.122 11.3007 6C11.3007 4.878 10.362 3.9375 9.16666 3.9375ZM5.65858 6C5.65858 4.08417 7.24624 2.5625 9.16849 2.5625C11.0898 2.5625 12.6775 4.08417 12.6775 6C12.6775 7.91583 11.0898 9.4375 9.16849 9.4375C7.24716 9.4375 5.65583 7.91583 5.65583 6M6.84749 11.4688C6.67974 11.3616 6.55416 11.3552 6.49549 11.3708C6.36349 11.4074 6.23241 11.4465 6.10224 11.4881L5.20024 11.7768C4.89123 11.872 4.60864 12.0378 4.3749 12.2612C4.14116 12.4846 3.96269 12.7594 3.85366 13.0638C3.82925 13.145 3.81358 13.2286 3.80691 13.3132L3.44849 16.7039L3.44666 16.7158C3.37791 17.1989 3.63549 17.5683 4.02691 17.66C5.01416 17.8892 6.67699 18.1458 9.16574 18.1458C9.34808 18.1458 9.52295 18.2183 9.65188 18.3472C9.78081 18.4761 9.85324 18.651 9.85324 18.8333C9.85324 19.0157 9.78081 19.1905 9.65188 19.3195C9.52295 19.4484 9.34808 19.5208 9.16574 19.5208C6.58258 19.5208 4.81433 19.2532 3.71616 18.9983C2.53458 18.7243 1.93599 17.6142 2.08358 16.5353L2.43924 13.1683C2.45574 13.0107 2.48508 12.8154 2.55474 12.6147C2.73352 12.1086 3.02773 11.6511 3.41405 11.2784C3.80038 10.9058 4.26819 10.6283 4.78041 10.4678L5.68333 10.1782C5.83183 10.1311 5.98094 10.0868 6.13066 10.0453C6.69074 9.89125 7.22333 10.0755 7.59366 10.3148C7.93283 10.5347 8.48649 10.7997 9.16574 10.7997C9.84408 10.7997 10.3977 10.5338 10.7369 10.3138C11.1063 10.0755 11.6398 9.89125 12.1999 10.0453C12.3496 10.0868 12.4987 10.1311 12.6472 10.1782L13.5502 10.4678C13.6379 10.4939 13.7196 10.5372 13.7903 10.5953C13.8611 10.6533 13.9196 10.7249 13.9623 10.8058C14.0051 10.8868 14.0312 10.9754 14.0393 11.0666C14.0473 11.1578 14.037 11.2497 14.0091 11.3368C13.9811 11.424 13.936 11.5047 13.8765 11.5742C13.8169 11.6437 13.7441 11.7006 13.6622 11.7416C13.5804 11.7826 13.4912 11.8068 13.3998 11.8129C13.3085 11.8189 13.2169 11.8067 13.1303 11.7768L12.2283 11.4881C12.0977 11.4463 11.9663 11.4072 11.8342 11.3708C11.7764 11.3552 11.6508 11.3616 11.484 11.4688C11.0137 11.7732 10.2007 12.1747 9.16483 12.1747C8.12899 12.1747 7.31774 11.7732 6.84749 11.4688Z" fill="url(#paint1_linear_458_1754)"/>
<defs>
<linearGradient id="paint0_linear_458_1754" x1="14.792" y1="16.5" x2="16.5007" y2="14.2762" gradientUnits="userSpaceOnUse">
<stop stop-color="#477BE9"/>
<stop offset="1" stop-color="#102A61"/>
</linearGradient>
<linearGradient id="paint1_linear_458_1754" x1="0.679172" y1="14.8573" x2="15.5503" y2="4.399" gradientUnits="userSpaceOnUse">
<stop stop-color="#102A61"/>
<stop offset="1" stop-color="#477BE9"/>
</linearGradient>
</defs>
</svg>
