<svg width="42" height="42" viewBox="0 0 42 42" fill="none" xmlns="http://www.w3.org/2000/svg">
<g clip-path="url(#clip0_434_1573)">
<path d="M21 0C16.8466 0 12.7865 1.23163 9.33303 3.53914C5.8796 5.84665 3.18798 9.1264 1.59854 12.9636C0.00909892 16.8009 -0.406771 21.0233 0.403519 25.0969C1.21381 29.1705 3.21386 32.9123 6.15077 35.8492C9.08767 38.7861 12.8295 40.7862 16.9031 41.5965C20.9767 42.4068 25.1991 41.9909 29.0364 40.4015C32.8736 38.812 36.1534 36.1204 38.4609 32.667C40.7684 29.2135 42 25.1534 42 21C42 15.4305 39.7875 10.089 35.8493 6.15076C31.911 2.21249 26.5696 0 21 0ZM26.3219 19.0105L25.9737 21.9367C25.9587 22.0725 25.8939 22.1979 25.7918 22.2887C25.6898 22.3796 25.5577 22.4294 25.4211 22.4286H22.3816V31.1049C22.3823 31.2085 22.3421 31.3081 22.2696 31.3822C22.1971 31.4562 22.0983 31.4985 21.9947 31.5H18.9C18.8485 31.4993 18.7976 31.4884 18.7503 31.468C18.7029 31.4476 18.6601 31.4181 18.6242 31.3812C18.5882 31.3442 18.56 31.3006 18.5409 31.2527C18.5219 31.2048 18.5124 31.1536 18.5132 31.1021L18.5297 22.4286H16.228C16.0815 22.4286 15.9409 22.3703 15.8373 22.2667C15.7336 22.1631 15.6754 22.0225 15.6754 21.8759V18.9525C15.6754 18.8059 15.7336 18.6654 15.8373 18.5617C15.9409 18.4581 16.0815 18.3999 16.228 18.3999H18.5132V15.5649C18.5132 12.285 20.4667 10.5 23.3211 10.5H25.6615C25.808 10.5 25.9486 10.5582 26.0522 10.6619C26.1559 10.7655 26.2141 10.9061 26.2141 11.0526V13.5146C26.2141 13.6612 26.1559 13.8017 26.0522 13.9054C25.9486 14.009 25.808 14.0672 25.6615 14.0672H24.2274C22.6745 14.0921 22.3816 14.8354 22.3816 15.9462V18.3916H25.7858C25.8629 18.3933 25.9388 18.4112 26.0086 18.444C26.0783 18.4769 26.1405 18.524 26.191 18.5823C26.2415 18.6406 26.2792 18.7088 26.3017 18.7826C26.3243 18.8563 26.3311 18.934 26.3219 19.0105Z" fill="url(#paint0_linear_434_1573)"/>
</g>
<defs>
<linearGradient id="paint0_linear_434_1573" x1="0" y1="21" x2="42" y2="21" gradientUnits="userSpaceOnUse">
<stop stop-color="white"/>
<stop offset="1" stop-color="#8ECDFF"/>
</linearGradient>
<clipPath id="clip0_434_1573">
<rect width="42" height="42" fill="white"/>
</clipPath>
</defs>
</svg>
