<svg width="42" height="42" viewBox="0 0 42 42" fill="none" xmlns="http://www.w3.org/2000/svg">
<path d="M21.0002 24.3185C22.833 24.3185 24.3187 22.8327 24.3187 20.9999C24.3187 19.1672 22.833 17.6814 21.0002 17.6814C19.1674 17.6814 17.6816 19.1672 17.6816 20.9999C17.6816 22.8327 19.1674 24.3185 21.0002 24.3185Z" fill="url(#paint0_linear_434_1579)"/>
<path d="M25.2445 12.6138H16.7561C15.6568 12.6138 14.6026 13.0504 13.8253 13.8277C13.048 14.605 12.6113 15.6593 12.6113 16.7585V25.2442C12.6113 26.3434 13.048 27.3976 13.8253 28.1749C14.6026 28.9522 15.6568 29.3889 16.7561 29.3889H25.2445C26.3437 29.3889 27.398 28.9522 28.1753 28.1749C28.9525 27.3976 29.3892 26.3434 29.3892 25.2442V16.7557C29.3885 15.657 28.9515 14.6034 28.1743 13.8268C27.3971 13.0501 26.3433 12.6138 25.2445 12.6138ZM21.0003 26.4323C19.9257 26.4329 18.8752 26.1147 17.9815 25.5181C17.0877 24.9216 16.391 24.0733 15.9795 23.0807C15.5679 22.0882 15.4599 20.9958 15.6692 19.9418C15.8785 18.8879 16.3957 17.9197 17.1553 17.1597C17.9149 16.3997 18.8828 15.882 19.9367 15.6722C20.9905 15.4623 22.083 15.5698 23.0758 15.9808C24.0685 16.3919 24.9171 17.0882 25.5142 17.9816C26.1112 18.875 26.4299 19.9254 26.4299 21C26.4284 22.4398 25.856 23.8203 24.8381 24.8386C23.8203 25.857 22.4401 26.4301 21.0003 26.4323ZM26.463 16.9105C26.1972 16.911 25.9372 16.8327 25.7159 16.6853C25.4947 16.538 25.3221 16.3283 25.2201 16.0828C25.1181 15.8373 25.0913 15.567 25.1431 15.3063C25.1948 15.0455 25.3227 14.806 25.5107 14.618C25.6987 14.43 25.9382 14.3021 26.199 14.2504C26.4597 14.1986 26.73 14.2255 26.9755 14.3274C27.221 14.4294 27.4307 14.602 27.578 14.8232C27.7254 15.0445 27.8037 15.3045 27.8032 15.5703C27.8024 15.9255 27.661 16.266 27.4098 16.5172C27.1587 16.7683 26.8182 16.9097 26.463 16.9105Z" fill="url(#paint1_linear_434_1579)"/>
<path d="M21 0C16.8466 0 12.7865 1.23163 9.33303 3.53914C5.8796 5.84665 3.18798 9.1264 1.59854 12.9636C0.00909892 16.8009 -0.406771 21.0233 0.403519 25.0969C1.21381 29.1705 3.21386 32.9123 6.15077 35.8492C9.08767 38.7861 12.8295 40.7862 16.9031 41.5965C20.9767 42.4068 25.1991 41.9909 29.0364 40.4015C32.8736 38.812 36.1534 36.1204 38.4609 32.667C40.7684 29.2135 42 25.1534 42 21C42 15.4305 39.7875 10.089 35.8493 6.15076C31.911 2.21249 26.5696 0 21 0ZM31.5 25.2442C31.4985 26.9029 30.839 28.4932 29.6661 29.6661C28.4932 30.839 26.9029 31.4985 25.2442 31.5H16.7558C15.0973 31.4978 13.5074 30.838 12.3347 29.6653C11.162 28.4926 10.5022 26.9027 10.5 25.2442V16.7558C10.5022 15.0973 11.162 13.5074 12.3347 12.3347C13.5074 11.162 15.0973 10.5022 16.7558 10.5H25.2442C26.9027 10.5022 28.4926 11.162 29.6653 12.3347C30.838 13.5074 31.4978 15.0973 31.5 16.7558V25.2442Z" fill="url(#paint2_linear_434_1579)"/>
<defs>
<linearGradient id="paint0_linear_434_1579" x1="17.6816" y1="20.9999" x2="24.3187" y2="20.9999" gradientUnits="userSpaceOnUse">
<stop stop-color="white"/>
<stop offset="1" stop-color="#8ECDFF"/>
</linearGradient>
<linearGradient id="paint1_linear_434_1579" x1="12.6113" y1="21.0013" x2="29.3892" y2="21.0013" gradientUnits="userSpaceOnUse">
<stop stop-color="white"/>
<stop offset="1" stop-color="#8ECDFF"/>
</linearGradient>
<linearGradient id="paint2_linear_434_1579" x1="0" y1="21" x2="42" y2="21" gradientUnits="userSpaceOnUse">
<stop stop-color="white"/>
<stop offset="1" stop-color="#8ECDFF"/>
</linearGradient>
</defs>
</svg>
