<svg width="24" height="24" viewBox="0 0 24 24" fill="none" xmlns="http://www.w3.org/2000/svg">
<path fill-rule="evenodd" clip-rule="evenodd" d="M3.70996 10.2444C3.70996 5.61258 7.40197 1.83618 11.9827 1.83618C16.5634 1.83618 20.2554 5.61258 20.2554 10.2444C20.2554 12.4805 19.6182 14.8815 18.4916 16.9558C17.3665 19.0275 15.7226 20.8277 13.6661 21.789C12.5978 22.2883 11.3676 22.2883 10.2993 21.789C8.24282 20.8277 6.59891 19.0275 5.47376 16.9558C4.34722 14.8815 3.70996 12.4805 3.70996 10.2444ZM11.9827 3.25436C8.20884 3.25436 5.12814 6.37198 5.12814 10.2444C5.12814 12.2271 5.69791 14.3969 6.72001 16.2789C7.7435 18.1635 9.18983 19.7049 10.8998 20.5042C11.5875 20.8256 12.3778 20.8256 13.0656 20.5042C14.7755 19.7049 16.2219 18.1635 17.2454 16.2789C18.2675 14.3969 18.8372 12.2271 18.8372 10.2444C18.8372 6.37198 15.7565 3.25436 11.9827 3.25436ZM11.9827 7.98164C10.8078 7.98164 9.85542 8.93405 9.85542 10.1089C9.85542 11.2838 10.8078 12.2362 11.9827 12.2362C13.1575 12.2362 14.11 11.2838 14.11 10.1089C14.11 8.93405 13.1575 7.98164 11.9827 7.98164ZM8.43723 10.1089C8.43723 8.15081 10.0246 6.56345 11.9827 6.56345C13.9408 6.56345 15.5281 8.15081 15.5281 10.1089C15.5281 12.067 13.9408 13.6544 11.9827 13.6544C10.0246 13.6544 8.43723 12.067 8.43723 10.1089Z" fill="white"/>
</svg>
