<svg width="28" height="28" viewBox="0 0 28 28" fill="none" xmlns="http://www.w3.org/2000/svg">
<path d="M22.9744 12.5641C22.9744 11.1971 22.7053 9.84333 22.1822 8.58035C21.6591 7.31756 20.8924 6.17031 19.9259 5.20374C18.9592 4.23703 17.811 3.4693 16.5479 2.94612C15.285 2.42307 13.9311 2.15385 12.5641 2.15385C11.1971 2.15389 9.84333 2.42298 8.58035 2.94612C7.3173 3.4693 6.17044 4.23704 5.20374 5.20374C3.25145 7.15603 2.15393 9.80319 2.15385 12.5641C2.15385 15.3252 3.25138 17.9736 5.20374 19.9259C7.156 21.878 9.80338 22.9743 12.5641 22.9744C15.3252 22.9744 17.9736 21.8783 19.9259 19.9259C20.8927 18.9592 21.659 17.811 22.1822 16.5479C22.7053 15.2849 22.9744 13.9312 22.9744 12.5641ZM25.1283 12.5641C25.1283 14.2141 24.8034 15.8481 24.1719 17.3724C23.6783 18.5641 23.0029 19.6687 22.1751 20.6523L27.6846 26.1617C28.1051 26.5823 28.1051 27.264 27.6846 27.6846C27.264 28.1051 26.5823 28.1051 26.1617 27.6846L20.6523 22.1751C18.3964 24.0737 15.5355 25.1283 12.5641 25.1283C9.23195 25.1282 6.03572 23.805 3.6795 21.4488C1.32339 19.0925 2.48265e-08 15.8963 0 12.5641C7.83096e-05 9.23195 1.32328 6.03572 3.6795 3.6795C4.84613 2.51286 6.23157 1.58775 7.75583 0.956333C9.28013 0.324949 10.9143 3.88485e-05 12.5641 0C14.2141 -1.22928e-08 15.8481 0.324963 17.3724 0.956333C18.8967 1.5877 20.2821 2.51292 21.4488 3.6795C22.6154 4.84608 23.5405 6.23165 24.1719 7.75583C24.8033 9.28013 25.1282 10.9143 25.1283 12.5641Z" fill="#102A61" fill-opacity="0.42"/>
</svg>
