<svg width="42" height="42" viewBox="0 0 42 42" fill="none" xmlns="http://www.w3.org/2000/svg">
<path d="M21 42C32.6007 42 42 32.6007 42 21C42 9.39925 32.6007 0 21 0C9.39925 0 0 9.39925 0 21C0 32.6007 9.39925 42 21 42ZM9.60925 20.545L29.8568 12.7382C30.7965 12.3987 31.6172 12.9675 31.3127 14.3885L31.3145 14.3867L27.867 30.6285C27.6115 31.78 26.9272 32.06 25.97 31.5175L20.72 27.6483L18.1877 30.0878C17.9077 30.3678 17.6715 30.604 17.129 30.604L17.5018 25.2613L27.2318 16.471C27.6553 16.0982 27.1372 15.8883 26.579 16.2593L14.5548 23.8298L9.37125 22.2127C8.246 21.8557 8.2215 21.0875 9.60925 20.545Z" fill="url(#paint0_linear_434_1591)"/>
<defs>
<linearGradient id="paint0_linear_434_1591" x1="0" y1="21" x2="42" y2="21" gradientUnits="userSpaceOnUse">
<stop stop-color="white"/>
<stop offset="1" stop-color="#8ECDFF"/>
</linearGradient>
</defs>
</svg>
