<svg width="20" height="20" viewBox="0 0 20 20" fill="none" xmlns="http://www.w3.org/2000/svg">
<path d="M3.87023 4H17.1202C18.3702 4 19.0002 4.59 19.0002 5.79V14.21C19.0002 15.4 18.3702 16 17.1202 16H3.87023C2.62023 16 1.99023 15.4 1.99023 14.21V5.79C1.99023 4.59 2.62023 4 3.87023 4ZM10.4902 12.6L17.2302 7.07C17.4702 6.87 17.6602 6.41 17.3602 6C17.0702 5.59 16.5402 5.58 16.1902 5.83L10.4902 9.69L4.80023 5.83C4.45023 5.58 3.92023 5.59 3.63023 6C3.33023 6.41 3.52023 6.87 3.76023 7.07L10.4902 12.6Z" fill="white" fill-opacity="0.9"/>
</svg>
