<svg width="20" height="20" viewBox="0 0 20 20" fill="none" xmlns="http://www.w3.org/2000/svg">
<path d="M17.4376 5.30005C14.8251 1.25005 9.47506 0.0500529 5.33756 2.56255C1.30006 5.07505 6.24657e-05 10.5501 2.61256 14.5876L2.82506 14.9126L1.95006 18.1876L5.22506 17.3126L5.55006 17.5251C6.96256 18.2876 8.50006 18.7251 10.0251 18.7251C11.6626 18.7251 13.3001 18.2876 14.7126 17.4126C18.7501 14.7876 19.9501 9.42505 17.4376 5.27505V5.30005ZM15.1501 13.7251C14.7126 14.3751 14.1626 14.8126 13.4001 14.9251C12.9626 14.9251 12.4126 15.1376 10.2376 14.2751C8.38756 13.4001 6.85006 11.9751 5.76256 10.3376C5.11256 9.57505 4.77506 8.58755 4.67506 7.60005C4.67506 6.72505 5.00006 5.96255 5.55006 5.41255C5.76256 5.20005 5.98756 5.08755 6.20006 5.08755H6.75006C6.96256 5.08755 7.18756 5.08755 7.30006 5.52505C7.51256 6.07505 8.06256 7.38755 8.06256 7.50005C8.17506 7.61255 8.12506 8.45005 7.62506 8.92505C7.35006 9.23755 7.30006 9.25005 7.41256 9.47505C7.85006 10.1251 8.40006 10.7876 8.93756 11.3376C9.58756 11.8876 10.2501 12.3251 11.0126 12.6501C11.2251 12.7626 11.4501 12.7626 11.5626 12.5376C11.6751 12.3251 12.2126 11.7751 12.4376 11.5501C12.6501 11.3376 12.7626 11.3376 12.9876 11.4376L14.7376 12.3126C14.9501 12.4251 15.1751 12.5251 15.2876 12.6376C15.4001 12.9626 15.4001 13.4001 15.1751 13.7251H15.1501Z" fill="white" fill-opacity="0.9"/>
</svg>
