<svg width="42" height="42" viewBox="0 0 42 42" fill="none" xmlns="http://www.w3.org/2000/svg">
<path d="M18.4883 16.9768L25.0397 21L18.4883 25.0259V16.9768Z" fill="url(#paint0_linear_434_1586)"/>
<path d="M21 0C16.8466 0 12.7865 1.23163 9.33303 3.53914C5.8796 5.84665 3.18798 9.1264 1.59854 12.9636C0.00909892 16.8009 -0.406771 21.0233 0.403519 25.0969C1.21381 29.1705 3.21386 32.9123 6.15077 35.8492C9.08767 38.7861 12.8295 40.7862 16.9031 41.5965C20.9767 42.4068 25.1991 41.9909 29.0364 40.4015C32.8736 38.812 36.1534 36.1204 38.4609 32.667C40.7684 29.2135 42 25.1534 42 21C42 15.4305 39.7875 10.089 35.8493 6.15076C31.911 2.21249 26.5696 0 21 0ZM31.0082 26.0538C30.5882 27.3442 29.1983 28.1289 27.919 28.3086C23.3193 28.7976 18.6807 28.7976 14.0811 28.3086C12.8017 28.1289 11.4119 27.3442 10.9919 26.0538C10.337 22.7174 10.337 19.2854 10.9919 15.9489C11.4119 14.6447 12.8017 13.8738 14.0921 13.6942C18.6918 13.2051 23.3303 13.2051 27.93 13.6942C29.2094 13.8738 30.5992 14.6558 31.0192 15.9489C31.6704 19.2861 31.6667 22.7181 31.0082 26.0538Z" fill="url(#paint1_linear_434_1586)"/>
<defs>
<linearGradient id="paint0_linear_434_1586" x1="18.4883" y1="21.0013" x2="25.0397" y2="21.0013" gradientUnits="userSpaceOnUse">
<stop stop-color="white"/>
<stop offset="1" stop-color="#8ECDFF"/>
</linearGradient>
<linearGradient id="paint1_linear_434_1586" x1="0" y1="21" x2="42" y2="21" gradientUnits="userSpaceOnUse">
<stop stop-color="white"/>
<stop offset="1" stop-color="#8ECDFF"/>
</linearGradient>
</defs>
</svg>
